<svg width="195" height="52" viewBox="0 0 195 52" fill="none" xmlns="http://www.w3.org/2000/svg">
<path d="M19.9172 48.0344C18.3404 48.0344 17.1371 47.5966 16.3072 46.7209C15.4773 45.8451 15.0624 44.615 15.0624 43.0303V11.379H4.04568C2.75936 11.379 1.76349 11.0246 1.0581 10.3157C0.352686 9.60673 -7.62939e-06 8.62675 -7.62939e-06 7.3757C-7.62939e-06 6.08295 0.352686 5.10299 1.0581 4.43578C1.76349 3.72685 2.75936 3.3724 4.04568 3.3724H35.7265C37.0128 3.3724 38.0087 3.72685 38.7141 4.43578C39.4195 5.10299 39.7722 6.08295 39.7722 7.3757C39.7722 8.62675 39.4195 9.60673 38.7141 10.3157C38.0087 11.0246 37.0128 11.379 35.7265 11.379H24.7098V43.0303C24.7098 44.615 24.2949 45.8451 23.465 46.7209C22.6766 47.5966 21.494 48.0344 19.9172 48.0344Z" fill="#F56B07"/>
<path d="M19.9172 48.0344C18.3404 48.0344 17.1371 47.5966 16.3072 46.7209C15.4773 45.8451 15.0624 44.615 15.0624 43.0303V11.379H4.04568C2.75936 11.379 1.76349 11.0246 1.0581 10.3157C0.352686 9.60673 -7.62939e-06 8.62675 -7.62939e-06 7.3757C-7.62939e-06 6.08295 0.352686 5.10299 1.0581 4.43578C1.76349 3.72685 2.75936 3.3724 4.04568 3.3724H35.7265C37.0128 3.3724 38.0087 3.72685 38.7141 4.43578C39.4195 5.10299 39.7722 6.08295 39.7722 7.3757C39.7722 8.62675 39.4195 9.60673 38.7141 10.3157C38.0087 11.0246 37.0128 11.379 35.7265 11.379H24.7098V43.0303C24.7098 44.615 24.2949 45.8451 23.465 46.7209C22.6766 47.5966 21.494 48.0344 19.9172 48.0344Z" fill="#F56B07"/>
<path d="M159.55 48.3193C157.954 48.3193 156.735 47.876 155.895 46.9894C155.055 46.1027 154.635 44.8573 154.635 43.2529V7.59836C154.635 5.994 155.055 4.74853 155.895 3.86191C156.735 2.9753 157.954 2.53199 159.55 2.53199C161.104 2.53199 162.302 2.9753 163.142 3.86191C163.982 4.74853 164.402 5.994 164.402 7.59836V21.0242H185.071V7.59836C185.071 5.994 185.491 4.74853 186.331 3.86191C187.172 2.9753 188.369 2.53199 189.923 2.53199C191.52 2.53199 192.738 2.9753 193.578 3.86191C194.418 4.74853 194.838 5.994 194.838 7.59836V43.2529C194.838 44.8573 194.418 46.1027 193.578 46.9894C192.738 47.876 191.52 48.3193 189.923 48.3193C188.369 48.3193 187.172 47.876 186.331 46.9894C185.491 46.1027 185.071 44.8573 185.071 43.2529V29.1937H164.402V43.2529C164.402 44.8573 163.982 46.1027 163.142 46.9894C162.344 47.876 161.146 48.3193 159.55 48.3193Z" fill="#F56B07"/>
<path d="M124.128 48.0344C122.551 48.0344 121.347 47.5966 120.518 46.7209C119.688 45.8451 119.273 44.615 119.273 43.0303V11.379H108.256C106.97 11.379 105.974 11.0246 105.268 10.3157C104.563 9.60673 104.21 8.62675 104.21 7.3757C104.21 6.08295 104.563 5.10299 105.268 4.43578C105.974 3.72685 106.97 3.3724 108.256 3.3724H139.937C141.223 3.3724 142.219 3.72685 142.924 4.43578C143.63 5.10299 143.983 6.08295 143.983 7.3757C143.983 8.62675 143.63 9.60673 142.924 10.3157C142.219 11.0246 141.223 11.379 139.937 11.379H128.92V43.0303C128.92 44.615 128.505 45.8451 127.675 46.7209C126.887 47.5966 125.704 48.0344 124.128 48.0344Z" fill="#F56B07"/>
<path d="M124.128 48.0344C122.551 48.0344 121.347 47.5966 120.518 46.7209C119.688 45.8451 119.273 44.615 119.273 43.0303V11.379H108.256C106.97 11.379 105.974 11.0246 105.268 10.3157C104.563 9.60673 104.21 8.62675 104.21 7.3757C104.21 6.08295 104.563 5.10299 105.268 4.43578C105.974 3.72685 106.97 3.3724 108.256 3.3724H139.937C141.223 3.3724 142.219 3.72685 142.924 4.43578C143.63 5.10299 143.983 6.08295 143.983 7.3757C143.983 8.62675 143.63 9.60673 142.924 10.3157C142.219 11.0246 141.223 11.379 139.937 11.379H128.92V43.0303C128.92 44.615 128.505 45.8451 127.675 46.7209C126.887 47.5966 125.704 48.0344 124.128 48.0344Z" fill="#F56B07"/>
<path d="M124.128 48.0344C122.551 48.0344 121.347 47.5966 120.518 46.7209C119.688 45.8451 119.273 44.615 119.273 43.0303V11.379H108.256C106.97 11.379 105.974 11.0246 105.268 10.3157C104.563 9.60673 104.21 8.62675 104.21 7.3757C104.21 6.08295 104.563 5.10299 105.268 4.43578C105.974 3.72685 106.97 3.3724 108.256 3.3724H139.937C141.223 3.3724 142.219 3.72685 142.924 4.43578C143.63 5.10299 143.983 6.08295 143.983 7.3757C143.983 8.62675 143.63 9.60673 142.924 10.3157C142.219 11.0246 141.223 11.379 139.937 11.379H128.92V43.0303C128.92 44.615 128.505 45.8451 127.675 46.7209C126.887 47.5966 125.704 48.0344 124.128 48.0344Z" fill="#F56B07"/>
<path d="M67.7651 2.61963C64.8208 2.9525 62.991 3.95416 62.4038 5.5855C62.317 5.80473 62.0656 6.11276 61.8323 6.26104L61.4145 6.53629L61.5832 5.86798C61.7094 5.43752 61.7211 4.92634 61.6152 4.36107C61.4771 3.53578 60.9294 2.09651 60.7616 2.07704C60.4564 2.04165 58.9003 3.62804 58.3992 4.50058C57.7824 5.57549 57.7057 6.65909 58.1951 7.79488L58.5851 8.71682L57.9144 9.31341L57.2589 9.91177L57.2277 9.23376C57.1704 8.37739 56.8795 7.39951 56.4149 6.5903L56.0694 5.95677L55.6213 6.36337C54.879 7.04607 53.9893 8.3456 53.7109 9.16304C53.3398 10.253 53.4705 11.2797 54.0939 12.1883L54.5584 12.8626L53.8682 13.7671L53.1643 14.6566L53.0048 13.8828C52.9296 13.4559 52.7612 12.8969 52.6511 12.6413C52.3774 12.0566 51.0011 10.4268 50.8516 10.5174C50.7998 10.5653 50.5165 11.018 50.2424 11.5257C49.851 12.2491 49.7035 12.731 49.59 13.5946C49.4297 15.0057 49.6914 15.8318 50.675 16.8361L51.3531 17.5352L50.9086 18.4547L50.4473 19.3858L50.23 18.8481C50.1092 18.5508 49.8402 18.0611 49.6125 17.7514C49.2138 17.1791 47.5783 15.789 47.2731 15.7536C47.0595 15.7289 46.698 17.2785 46.6974 18.236C46.6793 19.8929 47.5963 21.4829 48.9962 22.2253L49.564 22.5339L49.4461 23.5723L49.3297 24.5973L48.5461 23.7377C47.79 22.9081 46.4389 22.0096 45.456 21.6798C45.0836 21.5557 45.0348 21.577 45.0045 21.8432C44.9502 22.4573 45.2189 24.0396 45.5034 24.8009C45.9088 25.8595 46.9306 26.9357 47.9731 27.4208C48.4448 27.6239 48.9485 27.8172 49.1011 27.8349C49.3147 27.8596 49.3851 28.0566 49.4453 28.7515C49.4992 29.2298 49.5653 29.7365 49.6112 29.8767C49.6678 30.0586 49.5656 30.0063 49.2296 29.6976C48.3484 28.8805 47.0433 28.2571 45.125 27.7243C44.6458 27.5878 44.629 27.5994 44.695 27.9712C44.8224 28.7548 45.5961 30.3821 46.1934 31.1123C47.0213 32.1255 48.3129 32.8688 49.5443 33.0521L50.4415 33.1831L50.9003 34.1805C51.148 34.7217 51.3544 35.2177 51.3652 35.2594C51.3606 35.2994 50.979 35.1202 50.5287 34.8657C49.3227 34.1863 46.7497 33.5641 46.1336 33.8164C45.9552 33.8901 45.9583 33.9984 46.2074 34.3914C47.2267 36.0338 48.3996 37.1409 49.8223 37.8185C50.4527 38.1209 52.1969 38.4176 52.8086 38.3402C53.0298 38.2984 53.2268 38.4696 53.5721 38.9683C54.4751 40.2734 54.4704 40.1785 53.5943 39.8611C52.703 39.5419 50.8506 39.381 49.5814 39.5305L48.8293 39.6186L49.7289 40.5457C50.2971 41.1241 51.0788 41.7273 51.7597 42.13C52.7474 42.6897 53.0603 42.7934 54.1529 42.9741C55.0501 43.1051 55.6665 43.1227 56.202 43.0364L56.9891 42.9119L57.8335 43.6438L58.6765 44.3889L57.3247 44.3131C56.342 44.2531 55.6388 44.3198 54.6885 44.5198C53.9593 44.678 53.3675 44.8522 53.3615 44.9054C53.3388 45.1051 55.4685 46.3637 56.5201 46.7689C58.0891 47.3825 59.7919 47.4991 61.0914 47.0834L62.037 46.7884L63.1285 47.3871L64.2185 47.9991L63.3839 47.9967C62.4075 48.0183 60.5406 48.5301 59.6958 49.0256C58.9853 49.4287 59.0403 49.489 60.7329 50.1035C63.3749 51.0708 65.6299 51.0896 67.1729 50.1626L67.9353 49.7115L69.506 50.4467C70.373 50.844 71.1865 51.1677 71.3269 51.157C71.6228 51.1373 71.9805 50.3021 71.7515 50.1407C71.666 50.0768 71.3241 49.9562 70.9777 49.8756C70.6481 49.7834 69.9918 49.5724 69.5309 49.411L68.6853 49.0972L68.7392 48.0783C68.8362 45.999 67.6981 44.5856 64.9858 43.4213C63.6746 42.8511 63.6273 42.8591 63.7779 43.8477C63.9653 45.0563 64.3492 46.0315 64.9924 46.9019C65.6234 47.7439 65.6386 47.7457 64.0343 46.8987C62.7947 46.2424 62.7947 46.2424 63.1297 45.6068C63.4998 44.9349 63.5685 43.5132 63.2596 42.83C62.8162 41.8344 61.6799 40.6775 60.3609 39.9041C59.6067 39.4659 59.4833 39.6 59.4556 40.9321C59.4096 42.1541 59.6825 43.4266 60.1149 44.1107L60.4313 44.5925L60.0022 44.2865C59.4587 43.8997 57.95 42.6187 57.9575 42.5522C57.9606 42.5255 58.1815 42.214 58.4695 41.8562C58.89 41.2846 58.9797 41.0387 59.0916 40.0536C59.199 39.1084 59.1712 38.8085 58.9128 38.2255C58.5809 37.4721 56.9557 35.5842 56.6719 35.6322C56.4355 35.6722 55.8025 37.2982 55.6874 38.1751C55.6253 38.586 55.6427 39.2489 55.7194 39.6625L55.8499 40.4194L55.1701 39.5987C53.9863 38.1801 54 38.1952 54.7272 37.6456C55.9468 36.708 56.4506 35.5391 56.2051 34.1618C56.0592 33.2682 55.4614 31.9985 54.9497 31.467L54.6595 31.1636L54.0059 32.0185C53.2273 33.0207 52.6352 34.4221 52.6574 35.18C52.6714 35.4649 52.6349 35.6495 52.5662 35.5741C52.4028 35.3798 51.5723 33.4357 51.589 33.2892C51.5965 33.2227 51.9289 33.0184 52.3376 32.8231C54.3613 31.8844 55.1588 30.0346 54.5097 27.8552C54.1071 26.5002 54.0765 26.4967 52.9973 27.4236C51.8998 28.3753 51.3771 29.0295 50.9768 29.9677L50.7013 30.6236L50.5004 29.5348C50.2565 28.2791 50.2608 27.9694 50.5049 27.9977C50.8864 28.0419 52.3718 27.4859 53.0244 27.049C54.2792 26.21 54.8865 24.8103 54.7566 23.0957L54.6793 22.1426L54.1806 22.3141C53.9061 22.4171 53.0613 22.9126 52.3082 23.4187C51.2531 24.1325 50.8553 24.5045 50.5476 25.0353L50.144 25.7303L50.3043 24.3192L50.4494 22.9064L51.0703 22.884C52.155 22.8614 53.3814 22.5451 54.1468 22.0674C55.0251 21.5488 55.9286 20.3993 56.1688 19.51C56.2538 19.1691 56.3693 18.697 56.4423 18.4627C56.5806 17.9257 56.4128 17.9062 55.1041 18.267C53.7161 18.6455 52.2217 19.4163 51.5724 20.0963C50.9064 20.7879 50.9064 20.7879 51.4772 19.4379C52.1134 17.9201 52.0295 17.9778 53.5492 18.0732C55.1772 18.1676 56.2449 17.8868 57.3594 17.0584C58.4387 16.2665 59.8129 14.2408 59.3246 14.1842C59.233 14.1736 58.5785 14.2191 57.889 14.3009C56.4977 14.4363 55.0777 14.8246 54.268 15.2836C53.9859 15.4532 53.7587 15.5483 53.7632 15.5083C53.7693 15.4551 54.1014 14.9811 54.5021 14.4476L55.2182 13.4516L55.7661 13.6635C56.079 13.7673 56.9137 13.9046 57.6339 13.9611C59.2573 14.0955 60.4029 13.8102 61.6469 12.9295C62.6211 12.2467 63.4319 11.3696 63.305 11.1256C63.2393 11.0236 62.8151 10.9474 61.9531 10.9148C60.0764 10.832 58.7308 10.9727 57.7106 11.3804L56.7894 11.7321L57.1064 11.3912C57.2664 11.2075 57.8212 10.6784 58.3242 10.1972L59.2571 9.33427L59.8737 9.62161C60.2706 9.80251 61.0092 9.96911 61.8774 10.0833C63.1119 10.24 63.3453 10.2266 64.3032 9.96004C65.7247 9.55844 67.9262 8.00644 67.5963 7.64447C67.5413 7.58414 66.6609 7.44155 65.637 7.33628C63.8822 7.13274 63.3239 7.1489 62.0258 7.41646C61.8351 7.46178 61.9783 7.28956 62.4327 6.9646C63.0882 6.50114 63.2652 6.44073 64.0204 6.4609C65.1616 6.48537 66.3955 6.10247 67.2737 5.44901C68.3393 4.64197 69.8503 2.56731 69.3132 2.53199C69.2064 2.5196 68.4058 2.55907 67.7651 2.61963Z" fill="#F56B07"/>
<path d="M77.1792 2.97281C77.4515 3.73656 78.3596 4.92532 79.0868 5.47452C79.9649 6.12754 81.1988 6.51011 82.34 6.48554C83.0953 6.46531 83.2722 6.52567 83.9277 6.98882C84.382 7.31356 84.5253 7.48566 84.3346 7.44038C83.0365 7.1731 82.4781 7.15701 80.7234 7.36061C79.6995 7.46594 78.8191 7.60852 78.7641 7.66883C78.4342 8.03065 80.6356 9.58159 82.0572 9.98283C83.015 10.2491 83.2484 10.2625 84.4829 10.1058C85.3511 9.99157 86.0897 9.82498 86.4866 9.64413L87.1033 9.35689L88.0361 10.2192C88.539 10.7001 89.0954 11.2422 89.2874 11.4356L89.6059 11.7896L88.9547 11.5011C87.9467 11.0654 86.6592 10.8913 84.871 10.937C82.8968 10.9773 82.7517 11.0615 83.41 11.821C84.0896 12.6318 85.4573 13.5111 86.4822 13.8236C87.2341 14.0464 87.6552 14.0784 88.7263 13.9811C89.4465 13.9245 90.2812 13.7872 90.5941 13.6835L91.142 13.4716L91.858 14.467C92.2587 15.0001 92.5908 15.4739 92.5969 15.5271C92.6014 15.567 92.3742 15.472 92.0921 15.3026C91.2825 14.8438 89.8625 14.4559 88.4712 14.3207C87.7817 14.239 87.1272 14.1936 87.0356 14.2042C86.5473 14.2609 87.9214 16.2853 89.0008 17.0767C90.1152 17.9045 91.1829 18.185 92.8109 18.0905C94.3305 17.995 94.2467 17.9374 94.8828 19.4542C95.4536 20.8035 95.4536 20.8035 94.7876 20.1124C94.1383 19.4328 92.644 18.6625 91.256 18.2844C89.9473 17.924 89.7795 17.9434 89.9177 18.4801C89.9907 18.7143 90.1062 19.1861 90.1913 19.5268C90.4314 20.4156 91.3349 21.5644 92.2132 22.0826C92.9938 22.5582 94.1256 22.8583 95.2576 22.8887L95.9091 22.9075L96.0541 24.3196L96.2158 25.7432L95.8122 25.0486C95.5061 24.5314 95.0748 24.1366 94.0518 23.433C93.2986 22.9273 92.4539 22.4321 92.1794 22.3292L91.6807 22.1579L91.6034 23.1105C91.4734 24.8241 92.0807 26.223 93.3355 27.0615C93.988 27.498 95.4734 28.0536 95.8549 28.0093C96.099 27.981 96.1033 28.2906 95.8594 29.5456L95.6584 30.6339L95.3647 29.9535C95.0025 29.0788 94.3716 28.2893 93.2772 27.3648C92.2986 26.5078 92.2543 26.5264 91.8501 27.8674C91.201 30.0457 91.9985 31.8943 94.0221 32.8323C94.4308 33.0275 94.7631 33.2316 94.7707 33.2981C94.7873 33.4445 93.9569 35.3877 93.7934 35.5819C93.7247 35.6573 93.6882 35.4728 93.7023 35.188C93.7244 34.4306 93.1324 33.0299 92.3538 32.0283L91.7002 31.174L91.41 31.4773C90.8984 32.0085 90.3005 33.2776 90.1546 34.1708C89.9091 35.5473 90.4128 36.7156 91.6324 37.6525C92.3596 38.2017 92.3733 38.1866 91.1894 39.6046L90.5096 40.4249L90.6401 39.6683C90.7168 39.255 90.7343 38.5925 90.6722 38.1818C90.5572 37.3054 89.9242 35.6803 89.6877 35.6404C89.404 35.5924 87.7787 37.4795 87.4468 38.2325C87.1884 38.8152 87.1606 39.115 87.268 40.0596C87.3798 41.0442 87.4696 41.2899 87.9053 41.8594C88.178 42.2187 88.3989 42.5301 88.402 42.5567C88.4095 42.6232 86.9008 43.9037 86.3573 44.2903L85.9282 44.5962L86.2445 44.1146C86.677 43.4309 86.9499 42.159 86.9039 40.9376C86.8763 39.6063 86.7529 39.4723 85.9987 39.9103C84.6797 40.6835 83.5434 41.8398 83.0999 42.8349C82.791 43.5178 82.8597 44.9388 83.2297 45.6103C83.5647 46.2454 83.5647 46.2454 82.3252 46.9015C80.7208 47.7482 80.7361 47.7464 81.367 46.9048C82.0103 46.0349 82.3942 45.0602 82.5816 43.8521C82.7322 42.8641 82.6849 42.8561 81.3737 43.4261C78.6614 44.5901 77.5233 46.0028 77.6203 48.081L77.6741 49.0993L76.8286 49.4131C76.3676 49.5744 75.7114 49.7853 75.3817 49.8775C75.0353 49.9581 74.6934 50.0787 74.6079 50.1425C74.3789 50.3039 74.7365 51.1386 75.0325 51.1582C75.1729 51.1689 75.9864 50.8453 76.8534 50.4482L78.4241 49.7132L79.1865 50.164C80.7295 51.0903 82.9845 51.0713 85.6265 50.1043C87.3191 49.49 87.3741 49.4297 86.6635 49.0268C85.8188 48.5317 83.9519 48.0204 82.9755 47.9989L82.1409 48.0013L83.2309 47.3896L84.3224 46.7911L85.268 47.0858C86.5675 47.5012 88.2703 47.3845 89.8393 46.7711C90.891 46.366 93.0206 45.1078 92.9979 44.9083C92.9919 44.855 92.4001 44.6811 91.6862 44.5212C90.7207 44.3232 90.0174 44.2565 89.0348 44.3166L87.683 44.3926L88.5259 43.6477L89.3704 42.9162L90.1575 43.0405C90.693 43.1267 91.3093 43.1091 92.2066 42.978C93.2992 42.7973 93.612 42.6936 94.5997 42.1342C95.2806 41.7316 96.0624 41.1287 96.6306 40.5505L97.5302 39.6238L96.7781 39.5358C95.5089 39.3865 93.6565 39.5475 92.7652 39.8666C91.8891 40.184 91.8844 40.2789 92.7875 38.9743C93.1328 38.4759 93.3298 38.3048 93.551 38.3465C94.1627 38.4238 95.9069 38.1271 96.5373 37.8248C97.96 37.1475 99.1329 36.0408 100.152 34.3992C100.401 34.0063 100.404 33.8981 100.226 33.8245C99.6099 33.5724 97.037 34.1945 95.8462 34.8719C95.3806 35.1281 94.999 35.3072 94.9945 35.2673C95.0052 35.2256 95.2117 34.7298 95.4594 34.1888L95.9182 33.192L96.8154 33.0609C98.0468 32.8776 99.3383 32.1346 100.166 31.1219C100.764 30.392 101.537 28.7655 101.665 27.9823C101.731 27.6107 101.714 27.5991 101.235 27.7356C99.3164 28.2683 98.0113 28.8915 97.1302 29.7082C96.7667 30.0469 96.6934 30.0824 96.747 29.874C96.793 29.7338 96.8743 29.2256 96.913 28.7493C96.9915 28.0797 97.0756 27.8677 97.274 27.8447C97.4113 27.8288 97.915 27.6355 98.3866 27.4325C99.4292 26.9476 100.451 25.8719 100.856 24.8138C101.141 24.0529 101.41 22.4714 101.355 21.8576C101.325 21.5916 101.276 21.5702 100.919 21.6926C99.9211 22.0241 98.5699 22.9223 97.8291 23.7497L97.0302 24.6107L96.9138 23.5862L96.7959 22.5485L97.3638 22.2399C98.7636 21.4978 99.6807 19.9086 99.6626 18.2526C99.6621 17.2955 99.3006 15.7468 99.087 15.7716C98.7818 15.807 97.1463 17.1965 96.7475 17.7685C96.5199 18.078 96.2508 18.5676 96.13 18.8647L95.9128 19.4021L95.4515 18.4716L95.0069 17.5526L95.6851 16.8538C96.6687 15.85 96.9304 15.0243 96.7702 13.6139C96.6567 12.7509 96.5092 12.2692 96.1178 11.5462C95.8437 11.0388 95.5604 10.5864 95.5086 10.5385C95.3592 10.448 93.9828 12.077 93.7091 12.6615C93.599 12.9169 93.4306 13.4757 93.3554 13.9023L93.1959 14.6757L92.492 13.7868L91.8018 12.8828L92.2663 12.2088C92.8897 11.3007 93.0205 10.2745 92.6494 9.18519C92.371 8.36822 91.4814 7.06948 90.7391 6.38722L90.2909 5.98088L89.9455 6.61411C89.4808 7.42293 89.1899 8.40031 89.1326 9.25623L89.1013 9.93387L88.4459 9.3359L87.7752 8.7397L88.1653 7.81822C88.9483 6.00187 88.2484 4.19582 86.1356 2.47283C85.8795 2.25989 85.6447 2.09841 85.5989 2.10372C85.4311 2.1232 84.8834 3.56175 84.7452 4.38661C84.6393 4.95159 84.651 5.46249 84.7772 5.8927L84.9458 6.56064L84.5281 6.28557C84.2948 6.13739 84.0434 5.82955 83.9567 5.61045C83.5703 4.52293 82.3752 3.52924 80.9019 3.08009C80.1819 2.86705 78.5284 2.60058 77.6283 2.57022L77.0226 2.54613L77.1792 2.97281Z" fill="#F56B07"/>
</svg>
