<svg width="1378" height="1130" viewBox="0 0 1378 1130" fill="none" xmlns="http://www.w3.org/2000/svg">
<path d="M574.778 59.4517C508.874 66.5616 467.952 88.2785 454.878 123.757C452.946 128.525 447.331 135.218 442.115 138.434L432.774 144.406L436.52 129.868C439.326 120.505 439.564 109.38 437.168 97.0717C434.038 79.103 421.711 47.7523 417.952 47.3209C411.118 46.5364 376.35 80.9927 365.171 99.9603C351.41 123.327 349.742 146.908 360.751 171.651L369.524 191.735L354.535 204.689L339.888 217.682L339.158 202.924C337.836 184.282 331.279 162.986 320.839 145.352L313.076 131.547L303.061 140.376C286.473 155.201 266.613 183.444 260.418 201.223C252.157 224.928 255.131 247.281 269.13 267.084L279.56 281.782L264.148 301.438L248.427 320.764L244.822 303.915C243.119 294.621 239.323 282.446 236.846 276.879C230.692 264.14 199.804 228.604 196.462 230.568C195.305 231.61 188.982 241.449 182.868 252.487C174.138 268.214 170.858 278.696 168.355 297.486C164.831 328.191 170.728 346.184 192.795 368.087L208.009 383.334L198.098 403.327L187.812 423.571L182.924 411.858C180.205 405.383 174.16 394.71 169.049 387.96C160.095 375.486 123.415 345.156 116.581 344.371C111.797 343.822 103.774 377.533 103.805 398.374C103.474 434.435 124.078 469.084 155.452 485.305L168.18 492.049L165.587 514.643L163.027 536.948L145.444 518.201C128.479 500.112 98.1872 480.493 76.1665 473.27C67.8232 470.551 66.7317 471.013 66.0667 476.806C64.8787 490.17 70.9649 524.62 77.3705 541.204C86.4947 564.263 109.421 587.732 132.784 598.338C143.353 602.779 154.639 607.01 158.056 607.402C162.84 607.951 164.425 612.242 165.804 627.368C167.032 637.781 168.536 648.813 169.57 651.866C170.846 655.828 168.555 654.685 161.018 647.95C141.253 630.126 112.004 616.497 69.0305 604.814C58.2952 601.821 57.9203 602.071 59.4145 610.167C62.3033 627.227 79.6988 662.682 93.1048 678.602C111.688 700.692 140.637 716.928 168.216 720.974L188.31 723.867L198.626 745.596C204.197 757.387 208.842 768.193 209.084 769.101C208.984 769.97 200.432 766.054 190.338 760.493C163.306 745.65 105.672 731.991 91.8892 737.453C87.8975 739.049 87.9733 741.406 93.568 749.972C116.464 785.765 142.774 809.915 174.656 824.728C188.784 831.339 227.848 837.877 241.54 836.22C246.491 835.321 250.909 839.056 258.663 849.925C278.94 878.373 278.831 876.306 259.202 869.357C239.231 862.369 197.752 858.782 169.342 861.978L152.508 863.861L172.69 884.08C185.437 896.696 202.967 909.861 218.23 918.656C240.369 930.882 247.378 933.154 271.848 937.137C291.943 940.03 305.744 940.441 317.728 938.588L335.345 935.914L354.285 951.882L373.192 968.14L342.922 966.426C320.92 965.075 305.177 966.496 283.91 970.805C267.593 974.215 254.351 977.978 254.218 979.137C253.719 983.482 301.457 1010.97 325.02 1019.84C360.177 1033.27 398.306 1035.88 427.381 1026.89L448.539 1020.52L473.003 1033.6L497.435 1046.97L478.75 1046.88C456.89 1047.3 415.114 1058.36 396.224 1069.1C380.334 1077.84 381.568 1079.16 419.492 1092.61C478.687 1113.79 529.175 1114.3 563.68 1094.19L580.729 1084.41L615.928 1100.48C635.357 1109.17 653.586 1116.25 656.728 1116.03C663.354 1115.61 671.324 1097.45 666.189 1093.93C664.272 1092.53 656.612 1089.89 648.852 1088.12C641.468 1086.1 626.765 1081.48 616.438 1077.94L597.493 1071.07L598.653 1048.9C600.731 1003.65 575.186 972.835 514.406 947.369C485.025 934.898 483.967 935.07 487.382 956.593C491.632 982.908 500.272 1004.15 514.713 1023.12C528.878 1041.48 529.219 1041.52 493.261 1023.01C465.479 1008.67 465.479 1008.67 472.95 994.852C481.205 980.244 482.679 949.304 475.732 934.419C465.758 912.73 440.265 887.498 410.699 870.604C393.795 861.033 391.037 863.945 390.479 892.936C389.504 919.532 395.671 947.241 405.384 962.15L412.488 972.65L402.869 965.97C390.682 957.527 356.845 929.577 357.012 928.129C357.078 927.55 362.01 920.778 368.441 913.005C377.83 900.583 379.829 895.236 382.289 873.8C384.65 853.233 384.015 846.704 378.202 834.003C370.738 817.592 334.264 776.426 327.914 777.458C322.622 778.318 308.523 813.679 305.987 832.758C304.615 841.699 305.035 856.128 306.772 865.132L309.727 881.613L294.47 863.72C267.9 832.789 268.209 833.118 284.465 821.19C311.728 800.84 322.954 775.421 317.395 745.434C314.089 725.978 300.646 698.314 289.166 686.724L282.655 680.108L268.06 698.683C250.673 720.46 237.481 750.936 238.011 767.432C238.337 773.633 237.53 777.649 235.989 776.005C232.321 771.768 213.64 729.416 214.005 726.23C214.172 724.781 221.604 720.352 230.746 716.118C276.01 695.78 293.783 655.558 279.151 608.094C270.074 578.584 269.391 578.505 245.27 598.629C220.741 619.292 209.069 633.508 200.149 653.908L194.011 668.172L189.462 644.464C183.945 617.123 184.026 610.382 189.494 611.01C198.036 611.99 231.269 599.957 245.859 590.479C273.914 572.274 287.448 541.837 284.462 504.515L282.689 483.767L271.53 487.476C265.389 489.706 246.499 500.451 229.659 511.432C206.07 526.92 197.18 534.998 190.316 546.537L181.311 561.645L184.836 530.94L188.019 500.195L201.92 499.737C226.205 499.296 253.647 492.467 270.762 482.105C290.402 470.859 310.58 445.88 315.916 426.536C317.805 419.122 320.37 408.851 321.993 403.754C325.065 392.074 321.306 391.642 292.022 399.434C260.964 407.608 227.541 424.316 213.036 439.087C198.155 454.108 198.155 454.108 210.873 424.751C225.048 391.747 223.173 392.999 257.201 395.144C293.655 397.274 317.547 391.211 342.461 373.233C366.591 356.046 397.264 312.021 386.329 310.766C384.279 310.531 369.628 311.49 354.194 313.241C323.05 316.123 291.275 324.508 273.168 334.463C266.86 338.141 261.777 340.199 261.877 339.33C262.01 338.172 269.424 327.87 278.371 316.277L294.358 294.633L306.635 299.271C313.645 301.543 332.339 304.569 348.466 305.833C384.82 308.832 410.454 302.676 438.267 283.563C460.048 268.747 478.16 249.695 475.309 244.379C473.833 242.155 464.331 240.477 445.03 239.729C403.008 237.841 372.89 240.841 350.066 249.667L329.458 257.28L336.54 249.875C340.114 245.883 352.511 234.393 363.751 223.943L384.597 205.205L398.417 211.487C407.311 215.442 423.855 219.102 443.299 221.628C470.944 225.094 476.169 224.814 497.603 219.056C529.411 210.381 578.631 176.703 571.228 168.809C569.994 167.494 550.274 164.35 527.347 162.012C488.05 157.501 475.549 157.827 446.498 163.591C442.232 164.568 445.431 160.827 455.588 153.775C470.245 143.718 474.203 142.411 491.113 142.885C516.665 143.47 544.274 135.193 563.904 121.01C587.726 103.494 617.165 58.1539 605.139 57.3605C602.747 57.086 589.12 58.1631 574.778 59.4517Z" fill="#F56B07"/>
<path d="M762.574 66.844C768.707 83.4678 789.277 109.301 805.784 121.209C825.718 135.368 853.773 143.601 879.754 142.967C896.948 142.461 900.97 143.762 915.854 153.801C926.169 160.84 929.415 164.579 925.078 163.608C895.551 157.894 882.842 157.591 842.88 162.18C819.564 164.563 799.509 167.746 798.252 169.066C790.711 176.981 840.693 210.597 873.018 219.221C894.8 224.943 900.113 225.214 928.227 221.693C948.001 219.129 964.828 215.434 973.878 211.458L987.94 205.144L1009.1 223.861C1020.51 234.299 1033.13 246.066 1037.48 250.265L1044.7 257.954L1029.9 251.723C1007 242.312 977.702 238.627 936.993 239.776C892.047 240.825 888.738 242.674 903.659 259.17C919.061 276.785 950.119 295.834 973.423 302.557C990.521 307.349 1000.1 308.01 1024.49 305.797C1040.89 304.501 1059.91 301.438 1067.04 299.15L1079.53 294.485L1095.74 316.119C1104.82 327.706 1112.34 338.003 1112.47 339.163C1112.57 340.032 1107.41 337.982 1101 334.312C1082.61 324.382 1050.32 316.049 1018.66 313.222C1002.97 311.499 988.074 310.566 985.989 310.806C974.869 312.083 1005.98 356.09 1030.48 373.248C1055.78 391.196 1080.06 397.219 1117.13 395.019C1151.73 392.808 1149.82 391.558 1164.18 424.566C1177.05 453.926 1177.05 453.926 1161.95 438.919C1147.23 424.162 1113.28 407.502 1081.71 399.378C1051.95 391.635 1048.13 392.074 1051.23 403.758C1052.88 408.857 1055.46 419.132 1057.37 426.55C1062.76 445.902 1083.23 470.866 1103.18 482.085C1120.91 492.385 1146.65 498.828 1172.42 499.394L1187.24 499.747L1190.42 530.514L1193.99 561.53L1184.86 546.425C1177.93 535.179 1168.15 526.61 1144.92 511.362C1127.82 500.403 1108.63 489.683 1102.39 487.462L1091.05 483.771L1089.21 504.542C1086.11 541.904 1099.81 572.343 1128.31 590.512C1143.12 599.971 1176.89 611.954 1185.58 610.956C1191.14 610.318 1191.21 617.065 1185.55 644.441L1180.88 668.179L1174.25 653.374C1166.08 634.341 1151.79 617.185 1126.95 597.128C1104.75 578.532 1103.74 578.941 1094.43 608.206C1079.46 655.741 1097.46 695.966 1143.45 716.238C1152.73 720.458 1160.28 724.878 1160.45 726.328C1160.81 729.516 1141.74 771.942 1138.01 776.19C1136.44 777.838 1135.62 773.82 1135.97 767.613C1136.54 751.1 1123.18 720.621 1105.54 698.857L1090.73 680.292L1084.1 686.927C1072.41 698.549 1058.69 726.263 1055.29 745.744C1049.59 775.769 1060.96 801.19 1088.64 821.507C1105.15 833.416 1105.46 833.086 1078.39 864.095L1062.84 882.033L1065.88 865.532C1067.66 856.516 1068.11 842.073 1066.74 833.127C1064.19 814.035 1049.92 778.668 1044.54 777.817C1038.09 776.795 1000.93 818.068 993.31 834.509C987.377 847.231 986.719 853.768 989.082 874.349C991.545 895.8 993.568 901.148 1003.44 913.525C1009.62 921.333 1014.62 928.101 1014.68 928.681C1014.85 930.13 980.398 958.169 967.992 966.643L958.2 973.347L965.441 962.824C975.344 947.883 981.665 920.137 980.721 893.519C980.206 864.502 977.407 861.593 960.203 871.204C930.111 888.169 904.146 913.472 893.966 935.199C886.876 950.111 888.319 981.077 896.686 995.682C904.257 1009.5 904.257 1009.5 875.985 1023.9C839.391 1042.5 839.738 1042.46 854.174 1024.06C868.89 1005.04 877.713 983.763 882.082 957.416C885.593 935.867 884.517 935.697 854.621 948.234C792.779 973.838 766.751 1004.73 768.782 1050.02L769.922 1072.21L750.647 1079.12C740.141 1082.68 725.184 1087.33 717.672 1089.37C709.779 1091.15 701.987 1093.81 700.035 1095.21C694.808 1098.75 702.878 1116.91 709.614 1117.31C712.808 1117.53 731.355 1110.41 751.125 1101.68L786.943 1085.53L804.259 1095.29C839.305 1115.34 890.639 1114.74 950.863 1093.43C989.446 1079.9 990.703 1078.58 974.562 1069.86C955.375 1059.14 912.921 1048.15 890.695 1047.77L871.697 1047.89L896.562 1034.46L921.459 1021.33L942.96 1027.67C972.505 1036.61 1011.28 1033.92 1047.05 1020.42C1071.02 1011.5 1119.61 983.891 1119.11 979.542C1118.97 978.383 1105.52 974.641 1089.28 971.219C1067.32 966.986 1051.31 965.593 1028.94 966.987L998.162 968.759L1017.41 952.451L1036.7 936.433L1054.61 939.076C1066.79 940.908 1080.82 940.471 1101.26 937.537C1126.14 933.505 1133.27 931.218 1155.81 918.939C1171.34 910.106 1189.19 896.897 1202.17 884.245L1222.73 863.97L1205.61 862.116C1176.74 858.971 1134.55 862.639 1114.24 869.671C1094.27 876.663 1094.15 878.732 1114.82 850.22C1122.72 839.327 1127.22 835.58 1132.25 836.471C1146.17 838.103 1185.9 831.486 1200.28 824.842C1232.72 809.956 1259.51 785.734 1282.86 749.866C1288.56 741.281 1288.64 738.922 1284.59 737.332C1270.58 731.891 1211.96 745.671 1184.8 760.538C1174.18 766.162 1165.47 770.099 1165.37 769.229C1165.62 768.32 1170.36 757.496 1176.05 745.682L1186.58 723.915L1207.01 720.981C1235.06 716.88 1264.52 700.574 1283.46 678.429C1297.12 662.469 1314.87 626.95 1317.84 609.868C1319.37 601.762 1318.99 601.512 1308.07 604.528C1264.35 616.302 1234.59 629.999 1214.46 647.876C1206.16 655.291 1204.49 656.07 1205.73 651.523C1206.79 648.464 1208.68 637.38 1209.6 626.995C1211.45 612.392 1213.38 607.764 1217.9 607.245C1221.02 606.886 1232.51 602.631 1243.26 598.166C1267.03 587.506 1290.38 563.972 1299.7 540.875C1306.25 524.264 1312.5 489.771 1311.31 476.397C1310.65 470.6 1309.54 470.14 1301.4 472.836C1278.65 480.148 1247.81 499.841 1230.88 517.939L1212.62 536.776L1210.06 514.456L1207.46 491.846L1220.42 485.072C1252.34 468.777 1273.36 434.057 1273.08 397.964C1273.15 377.103 1265.06 343.377 1260.19 343.935C1253.24 344.733 1215.89 375.161 1206.77 387.663C1201.56 394.429 1195.39 405.122 1192.62 411.609L1187.63 423.342L1177.2 403.099L1167.16 383.106L1182.66 367.816C1205.13 345.852 1211.16 327.831 1207.64 297.104C1205.12 278.302 1201.81 267.816 1192.96 252.091C1186.76 241.055 1180.35 231.218 1179.18 230.178C1175.78 228.218 1144.32 263.844 1138.03 276.607C1135.51 282.184 1131.63 294.378 1129.88 303.683L1126.18 320.554L1110.23 301.239L1094.6 281.595L1105.23 266.864C1119.5 247.016 1122.56 224.637 1114.21 200.926C1107.94 183.142 1087.8 154.911 1070.96 140.103L1060.79 131.285L1052.87 145.117C1042.23 162.786 1035.52 184.115 1034.14 202.776L1033.38 217.549L1018.51 204.572L1003.29 191.634L1012.25 171.515C1030.23 131.858 1014.45 92.5517 966.497 55.1773C960.686 50.5581 955.355 47.0584 954.312 47.1781C950.49 47.617 937.9 79.0197 934.684 97.0108C932.226 109.335 932.449 120.47 935.285 129.836L939.067 144.38L929.581 138.421C924.283 135.211 918.586 128.523 916.63 123.754C907.927 100.083 880.806 78.5264 847.306 68.8628C830.936 64.2811 793.317 58.6147 772.829 58.0302L759.044 57.5571L762.574 66.844Z" fill="#F56B07"/>
</svg>
